<svg width="40" height="33" viewBox="0 0 40 33" fill="none" xmlns="http://www.w3.org/2000/svg">
<path fill-rule="evenodd" clip-rule="evenodd" d="M2.74979 14.2063C13.4872 9.54922 20.6471 6.479 24.2296 4.99563C34.4584 0.760278 36.5838 0.0245531 37.9692 0.000259029C38.2739 -0.00508418 38.9551 0.0700876 39.3964 0.426558C39.769 0.727555 39.8716 1.13416 39.9206 1.41954C39.9697 1.70492 40.0308 2.35501 39.9822 2.86298C39.4279 8.66085 37.0295 22.7307 35.8093 29.2245C35.293 31.9722 34.2763 32.8935 33.2921 32.9836C31.1532 33.1796 29.529 31.5765 27.4573 30.2246C24.2156 28.1091 22.3842 26.7923 19.2376 24.728C15.6011 22.3424 17.9585 21.0312 20.0309 18.8884C20.5733 18.3276 29.9974 9.79414 30.1798 9.02003C30.2026 8.92321 30.2238 8.56233 30.0085 8.37177C29.7931 8.1812 29.4752 8.24637 29.2459 8.29819C28.9207 8.37166 23.742 11.7792 13.7097 18.5208C12.2398 19.5256 10.9083 20.0152 9.7154 19.9896C8.40029 19.9613 5.87055 19.2493 3.98995 18.6408C1.68332 17.8944 -0.149946 17.4997 0.00969037 16.2321C0.0928388 15.5718 1.00621 14.8965 2.74979 14.2063Z" fill="white"/>
</svg>
